<svg width="41" height="40" viewBox="0 0 41 40" fill="none" xmlns="http://www.w3.org/2000/svg">
<rect x="6" y="17" width="4" height="7" rx="1" fill="#A7D7C8"/>
<rect x="12" y="12" width="4" height="12" rx="1" fill="#9088EC"/>
<rect x="24" y="8" width="4" height="16" rx="1" fill="#9088EC"/>
<rect x="18" y="13" width="4" height="11" rx="1" fill="#A7D7C8"/>
<rect x="6" y="24.7642" width="22.9553" height="1.04625" rx="0.523124" fill="#9088EC"/>
<path d="M5.89224 15.0119L13.402 9.59382C13.7743 9.32517 14.2278 9.19282 14.6862 9.21901L19.3858 9.48744C19.8474 9.51381 20.3039 9.37941 20.6776 9.10711L26.3143 5" stroke="#E3C96C" stroke-width="1.3"/>
<path fill-rule="evenodd" clip-rule="evenodd" d="M31.2078 28.3798C33.5818 25.3927 35 21.612 35 17.5C35 7.83499 27.165 -3.05176e-05 17.5 -3.05176e-05C7.83502 -3.05176e-05 0 7.83499 0 17.5C0 27.165 7.83502 35 17.5 35C21.9727 35 26.0534 33.3221 29.1472 30.5614L31.2982 32.6954L31.2043 32.7901C30.8153 33.1821 30.8178 33.8153 31.2099 34.2043L36.5776 39.5296C36.9696 39.9186 37.6028 39.9161 37.9918 39.524L40.2293 37.2688C40.6183 36.8767 40.6157 36.2435 40.2237 35.8546L34.856 30.5292C34.4639 30.1402 33.8308 30.1427 33.4418 30.5348L33.4111 30.5657L31.2078 28.3798ZM17.5 32.5C25.7843 32.5 32.5 25.7842 32.5 17.5C32.5 9.2157 25.7843 2.49997 17.5 2.49997C9.21572 2.49997 2.49999 9.2157 2.49999 17.5C2.49999 25.7842 9.21572 32.5 17.5 32.5Z" fill="#AEB5B7"/>
</svg>
