<svg width="116" height="99" viewBox="0 0 116 99" fill="none" xmlns="http://www.w3.org/2000/svg">
<path d="M54.6658 2.03094C56.2478 -0.356075 59.7522 -0.356082 61.3342 2.03093L78.1637 27.4245C78.7561 28.3184 79.6826 28.9369 80.7353 29.1414L112.413 35.2933C115.563 35.9051 116.747 39.7903 114.473 42.0544L93.4901 62.9478C92.6268 63.8074 92.2023 65.0136 92.337 66.2244L95.4776 94.4681C95.8094 97.4516 92.8588 99.7237 90.0591 98.6408L59.443 86.7982C58.5145 86.439 57.4855 86.439 56.557 86.7982L25.9409 98.6408C23.1412 99.7237 20.1906 97.4516 20.5224 94.4681L23.663 66.2244C23.7977 65.0136 23.3732 63.8074 22.5099 62.9478L1.52704 42.0544C-0.746747 39.7903 0.436924 35.9051 3.58685 35.2933L35.2647 29.1414C36.3174 28.9369 37.2439 28.3184 37.8363 27.4245L54.6658 2.03094Z" fill="#EB7A7A"/>
</svg>
