<svg width="40" height="40" viewBox="0 0 40 40" fill="none" xmlns="http://www.w3.org/2000/svg">
<path fill-rule="evenodd" clip-rule="evenodd" d="M40 20C40 31.0457 31.0457 40 20 40C8.9543 40 0 31.0457 0 20C0 8.9543 8.9543 0 20 0C31.0457 0 40 8.9543 40 20ZM20 39C30.4934 39 39 30.4934 39 20C39 9.50659 30.4934 0.999999 20 0.999999C9.50659 0.999999 1 9.50659 1 20C1 30.4934 9.50659 39 20 39ZM30.4331 31.9807C31.0487 32.0621 31.8309 32.2234 32.2611 31.7756C35.196 28.7205 37 24.5709 37 20C37 10.6112 29.3888 3 20 3C10.6112 3 3 10.6112 3 20C3 24.6591 4.87428 28.8805 7.90997 31.9512C8.03176 32.0744 8.22024 32.0921 8.39196 32.0693V32.0693L13.394 31.4066C14.8856 31.209 16 29.9371 16 28.4326V28.1559C16 27.1722 15.4765 26.2826 14.8421 25.5307C14.4314 25.0439 14.0997 24.4946 13.859 23.9073C13.6726 23.4522 13.4345 23.0172 13.1269 22.6335C11.8001 20.9785 11 18.8379 11 16.5C11 11.2533 15.0294 7 20 7C24.9706 7 29 11.2533 29 16.5C29 18.5735 28.3707 20.4919 27.3026 22.0539C27.0115 22.4796 26.8015 22.9561 26.6488 23.4487C26.3786 24.3203 25.9135 25.1246 25.2939 25.7938C24.5872 26.557 24 27.4856 24 28.5257V28.5257C24 30.0164 25.1044 31.2764 26.5822 31.4717L30.4331 31.9807V31.9807ZM20.3193 36.9971C20.8968 36.9864 20.8524 36.8198 20.2821 36.9112V36.9112C19.9147 36.9701 19.5408 36.9774 19.1713 36.933L16.2172 36.5776C17.4337 36.854 18.6998 37 20 37C20.1067 37 20.2131 36.999 20.3193 36.9971Z" fill="#7A7878"/>
</svg>
