<svg width="40" height="40" viewBox="0 0 40 40" fill="none" xmlns="http://www.w3.org/2000/svg">
<path fill-rule="evenodd" clip-rule="evenodd" d="M16.322 0C15.7697 0 15.322 0.447714 15.322 0.999999V5.97333C14.1999 6.35801 13.1368 6.86986 12.15 7.49168L8.82789 4.16954C8.43736 3.77901 7.8042 3.77901 7.41367 4.16954L3.55455 8.02866C3.16403 8.41918 3.16402 9.05235 3.55455 9.44287L6.99708 12.8854C6.28474 14.1399 5.7451 15.5052 5.41048 16.9492H1C0.447715 16.9492 0 17.3969 0 17.9492V23.4068C0 23.9591 0.447714 24.4068 0.999999 24.4068H5.54677C5.78039 25.2688 6.08768 26.1005 6.46148 26.8948L3.277 30.0793C2.88647 30.4698 2.88647 31.103 3.277 31.4935L7.13612 35.3526C7.52664 35.7431 8.15981 35.7431 8.55033 35.3526L11.2178 32.6851C12.4559 33.5996 13.8373 34.3312 15.322 34.8402V39C15.322 39.5523 15.7697 40 16.322 40H21.7797C22.3319 40 22.7797 39.5523 22.7797 39V35.4557C24.576 35.1586 26.2663 34.5475 27.7925 33.6809L30.4246 36.3129C30.8151 36.7035 31.4483 36.7035 31.8388 36.3129L35.6979 32.4538C36.0885 32.0633 36.0885 31.4301 35.6979 31.0396L33.1863 28.5279C33.981 27.2668 34.596 25.8811 34.9956 24.4068H39C39.5523 24.4068 40 23.9591 40 23.4068V17.9492C40 17.3969 39.5523 16.9492 39 16.9492H35.1319C34.6555 14.8936 33.7636 12.9972 32.5495 11.3534L35.4204 8.48255C35.8109 8.09203 35.8109 7.45886 35.4204 7.06834L31.5613 3.20921C31.1707 2.81869 30.5376 2.81869 30.1471 3.20921L26.7592 6.59709C25.5154 6.01172 24.1797 5.58944 22.7797 5.35781V1C22.7797 0.447715 22.3319 0 21.7797 0H16.322ZM19.9322 27.1186C23.6765 27.1186 26.7118 24.0833 26.7118 20.339C26.7118 16.5947 23.6765 13.5593 19.9322 13.5593C16.1879 13.5593 13.1525 16.5947 13.1525 20.339C13.1525 24.0833 16.1879 27.1186 19.9322 27.1186Z" fill="#CDD6D5"/>
</svg>
